# File created by Blade
# Date/Time:  Thu Jan 22 16:00:44 2015
# Frame Rate: 120.000 fps
#------------------------------------------------------
:FULLY-SPECIFIED
:DEGREES
1930
root 1.035239 37.027032 8.346411 5.084280 -6.099691 1.096182
RightUpLeg 7.464120 1.401724 -1.923155
RightLeg -7.948694 -0.000000 0.000000
RightFoot -9.568481 -7.083990 16.806964
RightToeBase 12.158466 -0.000000 -0.000000
LeftUpLeg 5.623339 6.935686 5.822964
LeftLeg -3.986757 -0.000000 0.000000
LeftFoot -6.831557 7.941060 -20.865494
LeftToeBase 5.685682 -0.000000 -0.000000
Spine -11.194876 8.746244 -7.296389
RightShoulder 7.169834 -34.959242 -13.631953
RightArm 130.037331 -52.698977 -36.565981
RightForeArm -35.504641 0.000000 120.913272
RightHand 37.974021 -0.000000 -19.090657
RightHandThumb1 -24.326973 -0.000000 -32.862282
LeftShoulder -16.183001 5.707796 28.338704
LeftArm 173.083766 -33.210606 -108.189413
LeftForeArm -21.151865 -0.000000 152.866581
LeftHand -5.772445 0.000000 10.741774
LeftHandThumb1 -26.253704 0.000000 33.147579
Head 35.346349 -3.092930 -1.484796
1931
root 1.040880 37.027347 8.343366 5.069731 -6.117021 1.083530
RightUpLeg 7.463957 1.387066 -1.920504
RightLeg -7.935667 -0.000000 0.000000
RightFoot -9.554792 -7.062756 16.810287
RightToeBase 12.134167 -0.000000 -0.000000
LeftUpLeg 5.636836 6.934986 5.826749
LeftLeg -3.983967 -0.000000 0.000000
LeftFoot -6.845399 7.947059 -20.846970
LeftToeBase 5.698729 -0.000000 -0.000000
Spine -11.144471 8.695299 -7.242802
RightShoulder 7.217122 -34.939222 -13.619456
RightArm 130.011656 -52.692598 -36.592146
RightForeArm -35.530765 -0.000000 120.922086
RightHand 37.929636 -0.000000 -19.087136
RightHandThumb1 -24.326973 -0.000000 -32.862282
LeftShoulder -16.185677 5.760488 28.325388
LeftArm 172.919499 -33.134500 -108.109430
LeftForeArm -21.108863 -0.000000 152.930398
LeftHand -5.756963 -0.000000 10.598596
LeftHandThumb1 -26.253704 0.000000 33.147579
Head 35.326357 -3.003205 -1.236196
1932
root 1.045801 37.027740 8.338964 5.054943 -6.142154 1.074453
RightUpLeg 7.459624 1.372475 -1.923585
RightLeg -7.918245 -0.000000 0.000000
RightFoot -9.541913 -7.024433 16.805102
RightToeBase 12.119882 -0.000000 -0.000000
LeftUpLeg 5.646945 6.946951 5.827732
LeftLeg -3.978765 -0.000000 0.000000
LeftFoot -6.858623 7.960453 -20.854907
LeftToeBase 5.672418 -0.000000 -0.000000
Spine -11.091357 8.652341 -7.202790
RightShoulder 7.261998 -34.890754 -13.601491
RightArm 129.994253 -52.708303 -36.612350
RightForeArm -35.587206 0.000000 120.937092
RightHand 37.864997 0.000000 -19.091948
RightHandThumb1 -24.326973 -0.000000 -32.862282
LeftShoulder -16.187385 5.785953 28.330902
LeftArm 172.749629 -33.067109 -108.024938
LeftForeArm -21.186065 -0.000000 152.978826
LeftHand -5.673074 -0.000000 10.333883
LeftHandThumb1 -26.253704 0.000000 33.147579
Head 35.300389 -2.957191 -0.985008
1933
root 1.049521 37.028678 8.334161 5.048030 -6.166599 1.060429
RightUpLeg 7.450793 1.392814 -1.918769
RightLeg -7.909361 -0.000000 0.000000
RightFoot -9.532089 -7.013577 16.841670
RightToeBase 12.152150 -0.000000 -0.000000
LeftUpLeg 5.650808 6.953226 5.835623
LeftLeg -3.975921 -0.000000 0.000000
LeftFoot -6.861744 7.966282 -20.849223
LeftToeBase 5.667991 -0.000000 -0.000000
Spine -11.045478 8.592513 -7.158335
RightShoulder 7.316985 -34.853202 -13.583806
RightArm 129.977976 -52.717925 -36.629521
RightForeArm -35.643075 -0.000000 120.953224
RightHand 37.828833 -0.000000 -19.071768
RightHandThumb1 -24.326973 -0.000000 -32.862282
LeftShoulder -16.218974 5.869566 28.310044
LeftArm 172.652021 -33.012245 -107.947646
LeftForeArm -21.069365 -0.000000 153.003925
LeftHand -5.650690 -0.000000 10.096973
LeftHandThumb1 -26.253704 0.000000 33.147579
Head 35.272374 -2.926822 -0.774801
